PathFileType        4      (X/Y/Z)      C:\Users\pc\Desktop\IMUTRC\Sujet_02\Sujet_02_velo_60.trc         
DataRate	CameraRate	NumFrames	NumMarkers	Units	OrigDataRate	OrigDataStartFrame	OrigNumFrames
60.0	60.0	4	64	mm	60.0	782	1250
Frame#	Time	pHipOrigin			pRightASI			pLeftASI			pRightCSI			pLeftCSI			pRightIschialTub			pLeftIschialTub			pSacrum			pL5SpinalProcess			pL3SpinalProcess			pT12SpinalProcess			pIJ			pT4SpinalProcess			pT8SpinalProcess			pPX			pC7SpinalProcess			pTopOfHead			pRightAuricularis			pLeftAuricularis			pBackOfHead			pRightAcromion			pLeftAcromion			pRightArmLatEpicondyle			pRightArmMedEpicondyle			pLeftArmLatEpicondyle			pLeftArmMedEpicondyle			pRightUlnarStyloid			pRightRadialStyloid			pRightOlecranon			pLeftUlnarStyloid			pLeftRadialStyloid			pLeftOlecranon			pRightTopOfHand			pRightPinky			pRightBallHand			pLeftTopOfHand			pLeftPinky			pLeftBallHand			pRightGreaterTrochanter			pRightKneeLatEpicondyle			pRightKneeMedEpicondyle			pRightPatella			pLeftGreaterTrochanter			pLeftKneeLatEpicondyle			pLeftKneeMedEpicondyle			pLeftPatella			pRightTibialTub			pRightLatMalleolus			pRightMedMalleolus			pLeftTibialTub			pLeftLatMalleolus			pLeftMedMalleolus			pRightHeelFoot			pRightFirstMetatarsal			pRightFifthMetatarsal			pRightPivotFoot			pRightHeelCenter			pRightToe			pLeftHeelFoot			pLeftFirstMetatarsal			pLeftFifthMetatarsal			pLeftPivotFoot			pLeftHeelCenter			pLeftToe			
		X1	Y1	Z1	X2	Y2	Z2	X3	Y3	Z3	X4	Y4	Z4	X5	Y5	Z5	X6	Y6	Z6	X7	Y7	Z7	X8	Y8	Z8	X9	Y9	Z9	X10	Y10	Z10	X11	Y11	Z11	X12	Y12	Z12	X13	Y13	Z13	X14	Y14	Z14	X15	Y15	Z15	X16	Y16	Z16	X17	Y17	Z17	X18	Y18	Z18	X19	Y19	Z19	X20	Y20	Z20	X21	Y21	Z21	X22	Y22	Z22	X23	Y23	Z23	X24	Y24	Z24	X25	Y25	Z25	X26	Y26	Z26	X27	Y27	Z27	X28	Y28	Z28	X29	Y29	Z29	X30	Y30	Z30	X31	Y31	Z31	X32	Y32	Z32	X33	Y33	Z33	X34	Y34	Z34	X35	Y35	Z35	X36	Y36	Z36	X37	Y37	Z37	X38	Y38	Z38	X39	Y39	Z39	X40	Y40	Z40	X41	Y41	Z41	X42	Y42	Z42	X43	Y43	Z43	X44	Y44	Z44	X45	Y45	Z45	X46	Y46	Z46	X47	Y47	Z47	X48	Y48	Z48	X49	Y49	Z49	X50	Y50	Z50	X51	Y51	Z51	X52	Y52	Z52	X53	Y53	Z53	X54	Y54	Z54	X55	Y55	Z55	X56	Y56	Z56	X57	Y57	Z57	X58	Y58	Z58	X59	Y59	Z59	X60	Y60	Z60	X61	Y61	Z61	X62	Y62	Z62	X63	Y63	Z63	X64	Y64	Z64	
782	13.017	0.0	1250.02827	7.654215598496017E-14	46.819030000000005	1370.06976	142.9662800000001	47.61740999999999	1366.02085	-146.0457299999999	-14.427789999999993	1429.14956	115.87853000000008	-13.800490000000007	1425.84201	-120.95391999999991	-45.279309999999995	1179.31499	60.10629000000007	-44.994170000000004	1177.60418	-58.33844999999993	-74.24894	1256.98554	-0.28512999999991845	-54.97387	1373.49137	-1.0264799999999126	-13.62941	1487.8872	7.128350000000093	34.72934	1588.02633	18.419670000000092	295.7982	1634.10401	36.09799000000008	173.13348	1733.61585	45.5074200000001	100.65237	1675.16334	32.61935000000009	200.22122	1550.21754	17.963450000000087	224.51466	1768.97248	54.63171000000009	463.4571	1773.87679	80.69297000000009	370.1612	1745.24932	129.05173000000008	385.44439	1777.86867	4.790250000000086	369.07769	1810.25991	78.64001000000009	186.64884000000004	1699.79893	246.75512000000012	232.32733	1751.46525	-155.7402899999999	258.33157	1415.6342	285.3052700000001	220.18062000000003	1393.45076	237.9159600000001	315.35841	1456.52244	-152.88894999999994	272.87342	1440.61196	-106.64018999999993	368.79256	1159.75478	341.02049000000005	408.02702	1174.92392	300.30332000000004	217.38630000000003	1404.51397	282.2258200000001	442.47123	1208.96894	-191.15395999999996	474.74842	1225.05051	-145.01924999999994	275.43962	1447.68328	-153.80137999999994	556.35382	1083.56693	326.64972	470.98465	1096.16986	355.56233	408.93945	1134.09271	330.4134900000001	633.226	1187.98307	-103.67478999999997	563.88136	1171.9015	-160.41648999999995	489.40432	1191.2336	-163.89512999999994	23.78019000000001	1251.56799	178.8931900000001	447.7177	1106.94793	199.47988000000004	456.55686	1099.87661	113.59746000000004	464.9398	1149.94617	151.12112000000002	14.88399999999999	1211.82029	-173.9318499999999	267.39884	844.68151	-123.97633999999995	274.86935	853.34959	-38.150949999999966	309.42762	878.72653	-84.45674999999996	485.1273	1051.97406	149.46734000000004	227.08087	706.79062	116.16367000000002	234.15219	714.8314	48.52984000000003	322.20163	804.0784	-77.61352999999997	169.54079	405.11865	-143.42249999999999	163.55297	402.0392	-75.27541999999998	137.32062	627.01007	52.92090000000003	301.67197	540.55739	42.82715000000002	280.57204	534.05633	127.96822000000002	312.62112	525.04609	88.56268000000001	173.64672	604.82663	60.22034000000003	384.76007	484.50001	103.38966	67.74788	321.23217	-106.06991999999998	225.94033	226.45357	-82.17567	218.58387	231.75707	-169.59781	243.67567	216.35982	-127.2839	104.131	298.42144	-110.51800999999999	316.15678	174.61617	-135.95198000000002	
783	13.033	0.0	1250.02827	7.654215598496017E-14	46.134710000000005	1370.18381	143.1373600000001	48.01659999999999	1366.02085	-145.87464999999992	-15.112109999999992	1429.20659	115.76448000000009	-13.572390000000008	1425.78498	-121.06796999999992	-45.45038999999999	1179.25796	59.93521000000007	-44.652010000000004	1177.54716	-58.50952999999993	-74.24894	1256.87149	-0.5702699999999186	-55.14495	1373.43434	-1.2545899999999126	-13.91455	1487.8872	7.014300000000093	34.38718	1588.08336	18.419670000000092	295.39902	1634.21807	36.83934000000008	172.67726	1733.67287	45.9066000000001	100.19615	1675.22036	32.79043000000009	199.87906	1550.27456	18.476700000000086	224.00142	1769.08654	55.144950000000094	462.94386	1773.93382	81.49135000000008	369.59093	1745.36337	129.8501100000001	384.93115	1777.86867	5.5886300000000855	368.56445	1810.31694	79.38136000000009	185.45127000000002	1699.91298	247.15431000000012	231.92815	1751.5793	-155.3410999999999	258.33157	1415.52015	284.67797000000013	220.06656000000004	1393.33671	237.28867000000008	314.84517	1456.52244	-152.31867999999994	272.47423	1440.72601	-105.89883999999994	368.50742	1159.69776	340.84940000000006	407.91297	1174.8669	300.30332000000004	217.21522000000002	1404.39992	281.5414900000001	441.95799	1209.02597	-190.52665999999994	474.46328	1225.22159	-144.62005999999994	274.86935	1447.68328	-153.06002999999995	556.01166	1083.33882	326.8208	470.64249	1096.05581	355.67638	408.65431	1134.03568	330.35647000000006	632.88384	1188.49631	-103.27559999999997	563.59623	1172.24366	-159.96027999999995	489.06215	1191.40468	-163.38188999999994	23.49506000000001	1251.91015	178.8931900000001	448.68715	1110.99684	199.13771000000003	457.46929	1103.92551	113.31233000000005	465.45304	1154.10913	150.72193000000001	16.53777999999999	1212.2765	-173.9318499999999	270.25018	846.16421	-122.43661999999996	276.52313	854.37607	-36.497179999999965	311.53761	880.20923	-82.17566999999995	487.69351	1056.9354	149.23923000000002	239.96893	703.88225	120.61176000000003	246.12783	711.69493	52.92090000000003	322.71487	803.96435	-76.13082999999997	157.10894	410.70728	-144.84816999999998	150.95004	407.3427	-76.81514999999999	153.34516	619.76766	58.33845000000003	321.17515	540.32928	48.64389000000001	300.58846	533.77119	133.89901	332.92267	525.73041	94.49347000000002	190.58369	599.18098	65.75194000000003	406.77243	488.49189	109.49153	52.35063999999999	330.12836	-108.86422999999999	207.00742	229.47599	-85.71134	200.10717	236.14813	-173.07644999999997	224.51466	219.32522	-130.87659	87.93538	306.06303	-113.48340999999999	295.51307	175.12942	-139.82980000000003	
784	13.05	0.0	1250.02827	7.654215598496017E-14	45.50742000000001	1370.29787	143.19439000000008	48.35875999999999	1366.02085	-145.81761999999992	-15.682379999999993	1429.20659	115.65043000000009	-13.344280000000007	1425.72795	-121.23905999999991	-45.56443999999999	1179.20094	59.821150000000074	-44.36688000000001	1177.49013	-58.62358999999993	-74.24894	1256.81446	-0.8553999999999186	-55.25901	1373.37732	-1.4826999999999124	-14.14266	1487.8872	6.843220000000092	34.10205	1588.08336	18.36264000000009	294.99983	1634.2751	37.40961000000008	172.27807	1733.7299	46.1347100000001	99.85399	1675.27739	32.84746000000009	199.5369	1550.33159	18.875880000000084	223.60223	1769.14356	55.487110000000094	462.48765	1773.99085	82.11865000000009	369.13472	1745.47743	130.36335000000008	384.58899	1777.86867	6.101870000000085	368.16526	1810.37397	79.83757000000008	184.48182000000003	1699.85596	247.3824200000001	231.64301	1751.69335	-155.17001999999988	258.33157	1415.34907	283.8225700000001	220.06656000000004	1393.16563	236.49029000000007	314.44598	1456.46542	-152.03354999999993	272.18909	1440.78304	-105.44261999999993	368.33634	1159.5837	340.5642700000001	407.85594	1174.75284	300.1322400000001	217.15820000000002	1404.22883	280.6290600000001	441.67285	1209.02597	-190.12746999999993	474.2922	1225.39267	-144.39194999999995	274.47017	1447.62626	-152.60381999999996	555.84058	1083.05369	326.87783	470.41438	1095.88473	355.61936	408.48323	1133.92163	330.18539000000004	632.71276	1188.8955	-102.99046999999997	563.42515	1172.47177	-159.61811999999995	488.89107	1191.57576	-163.03972999999993	23.32398000000001	1252.08123	178.8361600000001	448.97229	1112.59359	198.62447000000003	457.69739	1105.52226	112.79908000000005	465.5671	1155.76291	150.15166000000002	18.02047999999999	1212.67569	-173.87482999999992	274.24206	848.50231	-121.01094999999995	279.48853	856.48607	-34.957449999999966	314.78814	882.77544	-80.17972999999996	489.63242	1059.50161	148.95410000000004	252.57186	698.86389	124.60364000000003	258.10346	706.3344	56.79873000000003	324.42568	804.87678	-75.04731999999997	145.53249	417.94969	-146.50193999999996	139.31656	414.29997	-78.46892999999999	169.25565	610.7004	63.35682000000003	340.16508	538.04821	54.118470000000016	319.97758	531.49012	139.43062	352.53991	524.41879	100.0821	207.29255	591.76749	70.88436000000003	427.92939	490.31674	115.30826	37.97986999999999	340.8494	-111.60151999999998	188.87288	234.49435	-89.18997	182.48588	242.36406	-176.49805999999998	206.15202	224.22952	-134.46928	72.70921999999999	315.58652	-116.44879999999999	275.55368	177.6386	-143.70763000000002	
785	13.067	0.0	1250.02827	7.654215598496017E-14	45.16525000000001	1370.41192	143.19439000000008	48.58686999999999	1365.96383	-145.76059999999993	-16.02453999999999	1429.32064	115.47934000000008	-13.230230000000008	1425.6139	-121.35310999999992	-45.621469999999995	1179.25796	59.821150000000074	-44.195800000000006	1177.37608	-58.62358999999993	-74.24894	1256.75743	-0.9694599999999185	-55.37306	1373.37732	-1.7108099999999125	-14.25671	1487.83018	6.672140000000092	33.93097	1588.08336	18.19156000000009	294.82875	1634.21807	37.69474000000008	172.10699	1733.7299	46.1347100000001	99.68291	1675.27739	32.79043000000009	199.36582	1550.33159	19.046960000000084	223.43115	1769.14356	55.601170000000096	462.31657	1773.93382	82.34675000000009	368.90661	1745.53445	130.6484800000001	384.41791	1777.81164	6.329980000000085	367.93715	1810.37397	80.06568000000009	183.85452000000004	1699.5138	247.4394500000001	231.47193	1751.69335	-155.17001999999988	258.3886	1414.83583	282.7390600000001	220.18062000000003	1392.76644	235.2927300000001	314.33193	1456.46542	-152.20462999999995	272.18909	1440.78304	-105.55667999999993	368.39337	1159.29857	340.0510300000001	408.02702	1174.46771	299.7330600000001	217.21522000000002	1403.77262	279.48853000000014	441.72988	1209.02597	-190.12746999999993	474.40626	1225.50673	-144.44897999999995	274.35611	1447.56923	-152.71786999999995	555.84058	1082.71153	326.70675	470.47141	1095.54257	355.27719	408.54026	1133.63649	329.78620000000006	632.82681	1189.23766	-102.93343999999998	563.5392	1172.69988	-159.56108999999995	489.00513	1191.68981	-163.03972999999993	23.20992000000001	1252.08123	178.7791300000001	448.5731	1111.56711	197.94015000000002	457.18415	1104.49578	112.05773000000005	465.22494	1154.6794	149.46734000000004	19.10398999999999	1212.9038	-173.81779999999992	279.14637	851.63878	-119.92743999999996	283.76554	859.50849	-33.816909999999964	319.06515	886.25407	-78.75405999999995	490.94404	1059.44458	148.78302000000002	265.00371	691.50743	128.08228	270.25018	698.52173	60.22034000000003	327.10594	806.70164	-74.47704999999998	134.75442	426.78885	-148.55490999999998	128.70957	422.73994	-80.52188999999998	185.05209	599.69422	67.74788000000002	358.64178	533.54309	59.250880000000016	338.73941	527.09905	144.62006	371.58687	520.88313	105.32857	223.83034	582.24401	75.50353000000003	448.17391	489.8035	120.83987	24.692619999999994	353.33828	-114.50988999999997	171.65078	241.45163	-92.78266	165.71999	250.34781	-180.03371999999996	188.64478	230.95869	-138.119	58.45250999999999	326.87783	-119.47121999999999	256.33563	182.02966	-147.69951000000003	
